<svg 
 xmlns="http://www.w3.org/2000/svg"
 xmlns:xlink="http://www.w3.org/1999/xlink"
 width="48px" height="48px">
<path fill-rule="evenodd"  fill="rgb(244, 100, 100)"
 d="M46.863,22.734 C46.782,22.744 46.711,22.754 46.630,22.754 C45.970,22.754 45.392,22.288 45.280,21.620 C44.479,16.899 42.247,12.593 38.817,9.169 C35.388,5.755 31.076,3.516 26.348,2.716 C25.598,2.584 25.100,1.885 25.222,1.135 C25.354,0.396 26.054,-0.111 26.795,0.021 C32.091,0.923 36.910,3.415 40.745,7.244 C44.580,11.074 47.076,15.886 47.979,21.174 C48.111,21.913 47.603,22.623 46.863,22.734 ZM26.419,8.723 C29.636,9.270 32.568,10.790 34.891,13.110 C37.214,15.430 38.736,18.358 39.284,21.569 C39.406,22.319 38.909,23.028 38.158,23.149 C38.077,23.160 38.006,23.170 37.925,23.170 C37.265,23.170 36.687,22.704 36.575,22.035 C36.119,19.381 34.871,16.970 32.943,15.045 C31.015,13.120 28.601,11.864 25.943,11.418 C25.192,11.297 24.705,10.577 24.837,9.838 C24.969,9.098 25.669,8.602 26.419,8.723 ZM17.329,17.750 C16.578,18.510 15.807,19.300 14.975,20.060 C15.594,21.427 16.446,22.775 17.714,24.375 C20.332,27.587 23.061,30.069 26.064,31.973 C26.358,32.156 26.703,32.328 27.069,32.510 C27.322,32.642 27.586,32.774 27.850,32.915 L31.056,29.724 C32.081,28.701 33.278,28.164 34.526,28.164 C35.784,28.164 36.971,28.711 37.955,29.734 L43.525,35.316 C44.550,36.329 45.087,37.535 45.087,38.791 C45.087,40.037 44.560,41.253 43.555,42.296 C43.119,42.752 42.673,43.188 42.236,43.603 C41.597,44.221 40.988,44.799 40.461,45.437 C40.451,45.457 40.430,45.467 40.420,45.488 C38.878,47.159 36.910,48.000 34.566,48.000 C34.363,48.000 34.140,47.990 33.927,47.980 C30.447,47.757 27.332,46.450 24.999,45.346 C18.891,42.398 13.545,38.214 9.101,32.915 C5.438,28.519 2.983,24.416 1.339,19.989 C0.670,18.185 -0.203,15.430 0.041,12.472 C0.203,10.638 0.944,9.058 2.242,7.761 L5.692,4.286 C5.702,4.276 5.702,4.276 5.712,4.266 C6.727,3.293 7.924,2.777 9.162,2.777 C10.399,2.777 11.576,3.293 12.560,4.266 C13.220,4.874 13.859,5.522 14.468,6.150 C14.772,6.474 15.097,6.799 15.411,7.113 L18.181,9.878 C20.312,12.006 20.312,14.761 18.181,16.889 C17.897,17.172 17.613,17.466 17.329,17.750 ZM16.253,11.813 L13.484,9.048 C13.159,8.713 12.834,8.389 12.520,8.065 C11.901,7.427 11.313,6.829 10.694,6.251 C10.683,6.241 10.673,6.231 10.663,6.221 C10.339,5.897 9.821,5.512 9.182,5.512 C8.664,5.512 8.137,5.765 7.640,6.231 L4.180,9.686 C3.338,10.527 2.881,11.509 2.780,12.695 C2.628,14.548 2.973,16.514 3.916,19.036 C5.448,23.170 7.762,27.019 11.221,31.183 C15.411,36.177 20.454,40.118 26.196,42.894 C28.296,43.897 31.097,45.072 34.110,45.265 C34.262,45.275 34.424,45.275 34.576,45.275 C36.159,45.275 37.367,44.758 38.391,43.664 C39.020,42.925 39.690,42.266 40.349,41.638 C40.786,41.212 41.191,40.827 41.587,40.402 C42.622,39.328 42.622,38.264 41.577,37.231 L35.987,31.649 C35.977,31.639 35.977,31.639 35.966,31.629 C35.652,31.284 35.135,30.889 34.506,30.889 C33.866,30.889 33.318,31.305 32.973,31.649 L29.504,35.114 C29.331,35.286 28.804,35.813 27.961,35.813 C27.627,35.813 27.302,35.732 26.957,35.560 C26.916,35.539 26.876,35.509 26.835,35.489 C26.541,35.306 26.196,35.134 25.831,34.952 C25.425,34.749 24.999,34.536 24.583,34.273 C21.326,32.216 18.374,29.532 15.574,26.087 L15.564,26.077 C14.021,24.122 13.007,22.481 12.287,20.738 C12.276,20.708 12.266,20.678 12.256,20.647 C12.073,20.070 11.911,19.219 12.784,18.348 C12.794,18.327 12.814,18.317 12.834,18.297 C13.717,17.507 14.529,16.696 15.381,15.825 C15.675,15.541 15.959,15.248 16.253,14.954 C17.329,13.880 17.329,12.887 16.253,11.813 Z"/>
</svg>